
<svg width="430" height="130" viewBox="0 0 430 130" fill="none" xmlns="http://www.w3.org/2000/svg">
<g clip-path="url(#clip0_576_27937)">
<path d="M62.0544 5.18892V35.7179H68.8462V66.7002H62.0544V89.5592C62.0544 89.5592 62.0544 92.5819 65.469 92.5063C65.469 92.5063 68.4709 92.6952 68.8837 89.7859V114.005C68.8837 114.005 61.7542 124.962 49.8218 124.962C49.8218 124.962 34.3246 126.02 30.7974 108.3V67.0403H15L62.0544 5.18892Z" fill="white"/>
<path d="M297.439 66.5113V89.3703C297.439 89.3703 297.439 92.3929 300.816 92.3174C300.816 92.3174 303.818 92.5063 304.231 89.597V113.816C304.231 113.816 299.503 121.071 291.36 123.791C291.473 123.678 291.623 123.602 291.735 123.489C293.236 122.166 294.437 120.617 295.3 118.879C295.675 118.086 295.788 117.179 295.638 116.31C296.276 115.668 296.689 114.798 296.801 113.854C296.839 113.589 296.876 113.249 296.914 112.872C296.989 112.305 296.989 111.738 296.989 111.171C296.989 108.338 296.313 105.655 295 103.237C293.649 100.743 291.698 98.7405 289.221 97.2292C286.707 95.7179 283.705 94.9622 280.291 94.9622C276.876 94.9622 273.874 95.7557 271.323 97.267C269.221 98.5516 267.495 100.176 266.182 102.179V66.9269H250.422L297.439 5V35.529H304.231V66.5113H297.439Z" fill="white"/>
<path d="M72.3734 35.7179H103.33V89.2191C103.33 89.2191 103.593 92.733 107.458 92.3174C107.458 92.3174 110.797 92.5819 111.585 89.4458V35.7179H141.904V123.111H111.585V112.343C111.585 112.343 107.12 125 91.5854 125C91.5854 125 75.4128 125.642 72.3734 108.262V35.7179V35.7179Z" fill="white"/>
<path d="M170.76 109.887C170.61 109.584 170.46 109.471 170.347 109.395C170.234 109.32 170.084 109.244 169.784 109.244C169.409 109.244 169.296 109.32 169.221 109.358C169.109 109.433 168.959 109.547 168.771 109.924C168.583 110.264 168.508 110.68 168.508 111.247C168.508 111.814 168.583 112.229 168.771 112.569C168.959 112.909 169.109 113.06 169.221 113.136C169.259 113.174 169.409 113.249 169.784 113.249C170.084 113.249 170.197 113.174 170.309 113.098C170.422 113.023 170.572 112.909 170.76 112.569C170.947 112.229 171.022 111.776 171.022 111.247C171.022 110.68 170.947 110.227 170.76 109.887ZM170.76 109.887C170.61 109.584 170.46 109.471 170.347 109.395C170.234 109.32 170.084 109.244 169.784 109.244C169.409 109.244 169.296 109.32 169.221 109.358C169.109 109.433 168.959 109.547 168.771 109.924C168.583 110.264 168.508 110.68 168.508 111.247C168.508 111.814 168.583 112.229 168.771 112.569C168.959 112.909 169.109 113.06 169.221 113.136C169.259 113.174 169.409 113.249 169.784 113.249C170.084 113.249 170.197 113.174 170.309 113.098C170.422 113.023 170.572 112.909 170.76 112.569C170.947 112.229 171.022 111.776 171.022 111.247C171.022 110.68 170.947 110.227 170.76 109.887ZM170.76 109.887C170.61 109.584 170.46 109.471 170.347 109.395C170.234 109.32 170.084 109.244 169.784 109.244C169.409 109.244 169.296 109.32 169.221 109.358C169.109 109.433 168.959 109.547 168.771 109.924C168.583 110.264 168.508 110.68 168.508 111.247C168.508 111.814 168.583 112.229 168.771 112.569C168.959 112.909 169.109 113.06 169.221 113.136C169.259 113.174 169.409 113.249 169.784 113.249C170.084 113.249 170.197 113.174 170.309 113.098C170.422 113.023 170.572 112.909 170.76 112.569C170.947 112.229 171.022 111.776 171.022 111.247C171.022 110.68 170.947 110.227 170.76 109.887ZM170.76 109.887C170.61 109.584 170.46 109.471 170.347 109.395C170.234 109.32 170.084 109.244 169.784 109.244C169.409 109.244 169.296 109.32 169.221 109.358C169.109 109.433 168.959 109.547 168.771 109.924C168.583 110.264 168.508 110.68 168.508 111.247C168.508 111.814 168.583 112.229 168.771 112.569C168.959 112.909 169.109 113.06 169.221 113.136C169.259 113.174 169.409 113.249 169.784 113.249C170.084 113.249 170.197 113.174 170.309 113.098C170.422 113.023 170.572 112.909 170.76 112.569C170.947 112.229 171.022 111.776 171.022 111.247C171.022 110.68 170.947 110.227 170.76 109.887ZM170.76 109.887C170.61 109.584 170.46 109.471 170.347 109.395C170.234 109.32 170.084 109.244 169.784 109.244C169.409 109.244 169.296 109.32 169.221 109.358C169.109 109.433 168.959 109.547 168.771 109.924C168.583 110.264 168.508 110.68 168.508 111.247C168.508 111.814 168.583 112.229 168.771 112.569C168.959 112.909 169.109 113.06 169.221 113.136C169.259 113.174 169.409 113.249 169.784 113.249C170.084 113.249 170.197 113.174 170.309 113.098C170.422 113.023 170.572 112.909 170.76 112.569C170.947 112.229 171.022 111.776 171.022 111.247C171.022 110.68 170.947 110.227 170.76 109.887ZM170.76 109.887C170.61 109.584 170.46 109.471 170.347 109.395C170.234 109.32 170.084 109.244 169.784 109.244C169.409 109.244 169.296 109.32 169.221 109.358C169.109 109.433 168.959 109.547 168.771 109.924C168.583 110.264 168.508 110.68 168.508 111.247C168.508 111.814 168.583 112.229 168.771 112.569C168.959 112.909 169.109 113.06 169.221 113.136C169.259 113.174 169.409 113.249 169.784 113.249C170.084 113.249 170.197 113.174 170.309 113.098C170.422 113.023 170.572 112.909 170.76 112.569C170.947 112.229 171.022 111.776 171.022 111.247C171.022 110.68 170.947 110.227 170.76 109.887ZM170.76 109.887C170.61 109.584 170.46 109.471 170.347 109.395C170.234 109.32 170.084 109.244 169.784 109.244C169.409 109.244 169.296 109.32 169.221 109.358C169.109 109.433 168.959 109.547 168.771 109.924C168.583 110.264 168.508 110.68 168.508 111.247C168.508 111.814 168.583 112.229 168.771 112.569C168.959 112.909 169.109 113.06 169.221 113.136C169.259 113.174 169.409 113.249 169.784 113.249C170.084 113.249 170.197 113.174 170.309 113.098C170.422 113.023 170.572 112.909 170.76 112.569C170.947 112.229 171.022 111.776 171.022 111.247C171.022 110.68 170.947 110.227 170.76 109.887ZM170.76 109.887C170.61 109.584 170.46 109.471 170.347 109.395C170.234 109.32 170.084 109.244 169.784 109.244C169.409 109.244 169.296 109.32 169.221 109.358C169.109 109.433 168.959 109.547 168.771 109.924C168.583 110.264 168.508 110.68 168.508 111.247C168.508 111.814 168.583 112.229 168.771 112.569C168.959 112.909 169.109 113.06 169.221 113.136C169.259 113.174 169.409 113.249 169.784 113.249C170.084 113.249 170.197 113.174 170.309 113.098C170.422 113.023 170.572 112.909 170.76 112.569C170.947 112.229 171.022 111.776 171.022 111.247C171.022 110.68 170.947 110.227 170.76 109.887ZM170.76 109.887C170.61 109.584 170.46 109.471 170.347 109.395C170.234 109.32 170.084 109.244 169.784 109.244C169.409 109.244 169.296 109.32 169.221 109.358C169.109 109.433 168.959 109.547 168.771 109.924C168.583 110.264 168.508 110.68 168.508 111.247C168.508 111.814 168.583 112.229 168.771 112.569C168.959 112.909 169.109 113.06 169.221 113.136C169.259 113.174 169.409 113.249 169.784 113.249C170.084 113.249 170.197 113.174 170.309 113.098C170.422 113.023 170.572 112.909 170.76 112.569C170.947 112.229 171.022 111.776 171.022 111.247C171.022 110.68 170.947 110.227 170.76 109.887ZM170.76 109.887C170.61 109.584 170.46 109.471 170.347 109.395C170.234 109.32 170.084 109.244 169.784 109.244C169.409 109.244 169.296 109.32 169.221 109.358C169.109 109.433 168.959 109.547 168.771 109.924C168.583 110.264 168.508 110.68 168.508 111.247C168.508 111.814 168.583 112.229 168.771 112.569C168.959 112.909 169.109 113.06 169.221 113.136C169.259 113.174 169.409 113.249 169.784 113.249C170.084 113.249 170.197 113.174 170.309 113.098C170.422 113.023 170.572 112.909 170.76 112.569C170.947 112.229 171.022 111.776 171.022 111.247C171.022 110.68 170.947 110.227 170.76 109.887ZM170.76 109.887C170.61 109.584 170.46 109.471 170.347 109.395C170.234 109.32 170.084 109.244 169.784 109.244C169.409 109.244 169.296 109.32 169.221 109.358C169.109 109.433 168.959 109.547 168.771 109.924C168.583 110.264 168.508 110.68 168.508 111.247C168.508 111.814 168.583 112.229 168.771 112.569C168.959 112.909 169.109 113.06 169.221 113.136C169.259 113.174 169.409 113.249 169.784 113.249C170.084 113.249 170.197 113.174 170.309 113.098C170.422 113.023 170.572 112.909 170.76 112.569C170.947 112.229 171.022 111.776 171.022 111.247C171.022 110.68 170.947 110.227 170.76 109.887ZM170.76 109.887C170.61 109.584 170.46 109.471 170.347 109.395C170.234 109.32 170.084 109.244 169.784 109.244C169.409 109.244 169.296 109.32 169.221 109.358C169.109 109.433 168.959 109.547 168.771 109.924C168.583 110.264 168.508 110.68 168.508 111.247C168.508 111.814 168.583 112.229 168.771 112.569C168.959 112.909 169.109 113.06 169.221 113.136C169.259 113.174 169.409 113.249 169.784 113.249C170.084 113.249 170.197 113.174 170.309 113.098C170.422 113.023 170.572 112.909 170.76 112.569C170.947 112.229 171.022 111.776 171.022 111.247C171.022 110.68 170.947 110.227 170.76 109.887ZM170.76 109.887C170.61 109.584 170.46 109.471 170.347 109.395C170.234 109.32 170.084 109.244 169.784 109.244C169.409 109.244 169.296 109.32 169.221 109.358C169.109 109.433 168.959 109.547 168.771 109.924C168.583 110.264 168.508 110.68 168.508 111.247C168.508 111.814 168.583 112.229 168.771 112.569C168.959 112.909 169.109 113.06 169.221 113.136C169.259 113.174 169.409 113.249 169.784 113.249C170.084 113.249 170.197 113.174 170.309 113.098C170.422 113.023 170.572 112.909 170.76 112.569C170.947 112.229 171.022 111.776 171.022 111.247C171.022 110.68 170.947 110.227 170.76 109.887ZM170.76 109.887C170.61 109.584 170.46 109.471 170.347 109.395C170.234 109.32 170.084 109.244 169.784 109.244C169.409 109.244 169.296 109.32 169.221 109.358C169.109 109.433 168.959 109.547 168.771 109.924C168.583 110.264 168.508 110.68 168.508 111.247C168.508 111.814 168.583 112.229 168.771 112.569C168.959 112.909 169.109 113.06 169.221 113.136C169.259 113.174 169.409 113.249 169.784 113.249C170.084 113.249 170.197 113.174 170.309 113.098C170.422 113.023 170.572 112.909 170.76 112.569C170.947 112.229 171.022 111.776 171.022 111.247C171.022 110.68 170.947 110.227 170.76 109.887ZM170.76 109.887C170.61 109.584 170.46 109.471 170.347 109.395C170.234 109.32 170.084 109.244 169.784 109.244C169.409 109.244 169.296 109.32 169.221 109.358C169.109 109.433 168.959 109.547 168.771 109.924C168.583 110.264 168.508 110.68 168.508 111.247C168.508 111.814 168.583 112.229 168.771 112.569C168.959 112.909 169.109 113.06 169.221 113.136C169.259 113.174 169.409 113.249 169.784 113.249C170.084 113.249 170.197 113.174 170.309 113.098C170.422 113.023 170.572 112.909 170.76 112.569C170.947 112.229 171.022 111.776 171.022 111.247C171.022 110.68 170.947 110.227 170.76 109.887ZM170.76 109.887C170.61 109.584 170.46 109.471 170.347 109.395C170.234 109.32 170.084 109.244 169.784 109.244C169.409 109.244 169.296 109.32 169.221 109.358C169.109 109.433 168.959 109.547 168.771 109.924C168.583 110.264 168.508 110.68 168.508 111.247C168.508 111.814 168.583 112.229 168.771 112.569C168.959 112.909 169.109 113.06 169.221 113.136C169.259 113.174 169.409 113.249 169.784 113.249C170.084 113.249 170.197 113.174 170.309 113.098C170.422 113.023 170.572 112.909 170.76 112.569C170.947 112.229 171.022 111.776 171.022 111.247C171.022 110.68 170.947 110.227 170.76 109.887ZM170.76 109.887C170.61 109.584 170.46 109.471 170.347 109.395C170.234 109.32 170.084 109.244 169.784 109.244C169.409 109.244 169.296 109.32 169.221 109.358C169.109 109.433 168.959 109.547 168.771 109.924C168.583 110.264 168.508 110.68 168.508 111.247C168.508 111.814 168.583 112.229 168.771 112.569C168.959 112.909 169.109 113.06 169.221 113.136C169.259 113.174 169.409 113.249 169.784 113.249C170.084 113.249 170.197 113.174 170.309 113.098C170.422 113.023 170.572 112.909 170.76 112.569C170.947 112.229 171.022 111.776 171.022 111.247C171.022 110.68 170.947 110.227 170.76 109.887ZM170.76 109.887C170.61 109.584 170.46 109.471 170.347 109.395C170.234 109.32 170.084 109.244 169.784 109.244C169.409 109.244 169.296 109.32 169.221 109.358C169.109 109.433 168.959 109.547 168.771 109.924C168.583 110.264 168.508 110.68 168.508 111.247C168.508 111.814 168.583 112.229 168.771 112.569C168.959 112.909 169.109 113.06 169.221 113.136C169.259 113.174 169.409 113.249 169.784 113.249C170.084 113.249 170.197 113.174 170.309 113.098C170.422 113.023 170.572 112.909 170.76 112.569C170.947 112.229 171.022 111.776 171.022 111.247C171.022 110.68 170.947 110.227 170.76 109.887ZM170.76 109.887C170.61 109.584 170.46 109.471 170.347 109.395C170.234 109.32 170.084 109.244 169.784 109.244C169.409 109.244 169.296 109.32 169.221 109.358C169.109 109.433 168.959 109.547 168.771 109.924C168.583 110.264 168.508 110.68 168.508 111.247C168.508 111.814 168.583 112.229 168.771 112.569C168.959 112.909 169.109 113.06 169.221 113.136C169.259 113.174 169.409 113.249 169.784 113.249C170.084 113.249 170.197 113.174 170.309 113.098C170.422 113.023 170.572 112.909 170.76 112.569C170.947 112.229 171.022 111.776 171.022 111.247C171.022 110.68 170.947 110.227 170.76 109.887ZM170.76 109.887C170.61 109.584 170.46 109.471 170.347 109.395C170.234 109.32 170.084 109.244 169.784 109.244C169.409 109.244 169.296 109.32 169.221 109.358C169.109 109.433 168.959 109.547 168.771 109.924C168.583 110.264 168.508 110.68 168.508 111.247C168.508 111.814 168.583 112.229 168.771 112.569C168.959 112.909 169.109 113.06 169.221 113.136C169.259 113.174 169.409 113.249 169.784 113.249C170.084 113.249 170.197 113.174 170.309 113.098C170.422 113.023 170.572 112.909 170.76 112.569C170.947 112.229 171.022 111.776 171.022 111.247C171.022 110.68 170.947 110.227 170.76 109.887ZM170.76 109.887C170.61 109.584 170.46 109.471 170.347 109.395C170.234 109.32 170.084 109.244 169.784 109.244C169.409 109.244 169.296 109.32 169.221 109.358C169.109 109.433 168.959 109.547 168.771 109.924C168.583 110.264 168.508 110.68 168.508 111.247C168.508 111.814 168.583 112.229 168.771 112.569C168.959 112.909 169.109 113.06 169.221 113.136C169.259 113.174 169.409 113.249 169.784 113.249C170.084 113.249 170.197 113.174 170.309 113.098C170.422 113.023 170.572 112.909 170.76 112.569C170.947 112.229 171.022 111.776 171.022 111.247C171.022 110.68 170.947 110.227 170.76 109.887ZM170.76 109.887C170.61 109.584 170.46 109.471 170.347 109.395C170.234 109.32 170.084 109.244 169.784 109.244C169.409 109.244 169.296 109.32 169.221 109.358C169.109 109.433 168.959 109.547 168.771 109.924C168.583 110.264 168.508 110.68 168.508 111.247C168.508 111.814 168.583 112.229 168.771 112.569C168.959 112.909 169.109 113.06 169.221 113.136C169.259 113.174 169.409 113.249 169.784 113.249C170.084 113.249 170.197 113.174 170.309 113.098C170.422 113.023 170.572 112.909 170.76 112.569C170.947 112.229 171.022 111.776 171.022 111.247C171.022 110.68 170.947 110.227 170.76 109.887ZM170.76 109.887C170.61 109.584 170.46 109.471 170.347 109.395C170.234 109.32 170.084 109.244 169.784 109.244C169.409 109.244 169.296 109.32 169.221 109.358C169.109 109.433 168.959 109.547 168.771 109.924C168.583 110.264 168.508 110.68 168.508 111.247C168.508 111.814 168.583 112.229 168.771 112.569C168.959 112.909 169.109 113.06 169.221 113.136C169.259 113.174 169.409 113.249 169.784 113.249C170.084 113.249 170.197 113.174 170.309 113.098C170.422 113.023 170.572 112.909 170.76 112.569C170.947 112.229 171.022 111.776 171.022 111.247C171.022 110.68 170.947 110.227 170.76 109.887ZM170.76 109.887C170.61 109.584 170.46 109.471 170.347 109.395C170.234 109.32 170.084 109.244 169.784 109.244C169.409 109.244 169.296 109.32 169.221 109.358C169.109 109.433 168.959 109.547 168.771 109.924C168.583 110.264 168.508 110.68 168.508 111.247C168.508 111.814 168.583 112.229 168.771 112.569C168.959 112.909 169.109 113.06 169.221 113.136C169.259 113.174 169.409 113.249 169.784 113.249C170.084 113.249 170.197 113.174 170.309 113.098C170.422 113.023 170.572 112.909 170.76 112.569C170.947 112.229 171.022 111.776 171.022 111.247C171.022 110.68 170.947 110.227 170.76 109.887ZM170.76 109.887C170.61 109.584 170.46 109.471 170.347 109.395C170.234 109.32 170.084 109.244 169.784 109.244C169.409 109.244 169.296 109.32 169.221 109.358C169.109 109.433 168.959 109.547 168.771 109.924C168.583 110.264 168.508 110.68 168.508 111.247C168.508 111.814 168.583 112.229 168.771 112.569C168.959 112.909 169.109 113.06 169.221 113.136C169.259 113.174 169.409 113.249 169.784 113.249C170.084 113.249 170.197 113.174 170.309 113.098C170.422 113.023 170.572 112.909 170.76 112.569C170.947 112.229 171.022 111.776 171.022 111.247C171.022 110.68 170.947 110.227 170.76 109.887ZM170.76 109.887C170.61 109.584 170.46 109.471 170.347 109.395C170.234 109.32 170.084 109.244 169.784 109.244C169.409 109.244 169.296 109.32 169.221 109.358C169.109 109.433 168.959 109.547 168.771 109.924C168.583 110.264 168.508 110.68 168.508 111.247C168.508 111.814 168.583 112.229 168.771 112.569C168.959 112.909 169.109 113.06 169.221 113.136C169.259 113.174 169.409 113.249 169.784 113.249C170.084 113.249 170.197 113.174 170.309 113.098C170.422 113.023 170.572 112.909 170.76 112.569C170.947 112.229 171.022 111.776 171.022 111.247C171.022 110.68 170.947 110.227 170.76 109.887ZM170.76 109.887C170.61 109.584 170.46 109.471 170.347 109.395C170.234 109.32 170.084 109.244 169.784 109.244C169.409 109.244 169.296 109.32 169.221 109.358C169.109 109.433 168.959 109.547 168.771 109.924C168.583 110.264 168.508 110.68 168.508 111.247C168.508 111.814 168.583 112.229 168.771 112.569C168.959 112.909 169.109 113.06 169.221 113.136C169.259 113.174 169.409 113.249 169.784 113.249C170.084 113.249 170.197 113.174 170.309 113.098C170.422 113.023 170.572 112.909 170.76 112.569C170.947 112.229 171.022 111.776 171.022 111.247C171.022 110.68 170.947 110.227 170.76 109.887ZM170.76 109.887C170.61 109.584 170.46 109.471 170.347 109.395C170.234 109.32 170.084 109.244 169.784 109.244C169.409 109.244 169.296 109.32 169.221 109.358C169.109 109.433 168.959 109.547 168.771 109.924C168.583 110.264 168.508 110.68 168.508 111.247C168.508 111.814 168.583 112.229 168.771 112.569C168.959 112.909 169.109 113.06 169.221 113.136C169.259 113.174 169.409 113.249 169.784 113.249C170.084 113.249 170.197 113.174 170.309 113.098C170.422 113.023 170.572 112.909 170.76 112.569C170.947 112.229 171.022 111.776 171.022 111.247C171.022 110.68 170.947 110.227 170.76 109.887ZM170.76 109.887C170.61 109.584 170.46 109.471 170.347 109.395C170.234 109.32 170.084 109.244 169.784 109.244C169.409 109.244 169.296 109.32 169.221 109.358C169.109 109.433 168.959 109.547 168.771 109.924C168.583 110.264 168.508 110.68 168.508 111.247C168.508 111.814 168.583 112.229 168.771 112.569C168.959 112.909 169.109 113.06 169.221 113.136C169.259 113.174 169.409 113.249 169.784 113.249C170.084 113.249 170.197 113.174 170.309 113.098C170.422 113.023 170.572 112.909 170.76 112.569C170.947 112.229 171.022 111.776 171.022 111.247C171.022 110.68 170.947 110.227 170.76 109.887ZM170.76 109.887C170.61 109.584 170.46 109.471 170.347 109.395C170.234 109.32 170.084 109.244 169.784 109.244C169.409 109.244 169.296 109.32 169.221 109.358C169.109 109.433 168.959 109.547 168.771 109.924C168.583 110.264 168.508 110.68 168.508 111.247C168.508 111.814 168.583 112.229 168.771 112.569C168.959 112.909 169.109 113.06 169.221 113.136C169.259 113.174 169.409 113.249 169.784 113.249C170.084 113.249 170.197 113.174 170.309 113.098C170.422 113.023 170.572 112.909 170.76 112.569C170.947 112.229 171.022 111.776 171.022 111.247C171.022 110.68 170.947 110.227 170.76 109.887ZM170.76 109.887C170.61 109.584 170.46 109.471 170.347 109.395C170.234 109.32 170.084 109.244 169.784 109.244C169.409 109.244 169.296 109.32 169.221 109.358C169.109 109.433 168.959 109.547 168.771 109.924C168.583 110.264 168.508 110.68 168.508 111.247C168.508 111.814 168.583 112.229 168.771 112.569C168.959 112.909 169.109 113.06 169.221 113.136C169.259 113.174 169.409 113.249 169.784 113.249C170.084 113.249 170.197 113.174 170.309 113.098C170.422 113.023 170.572 112.909 170.76 112.569C170.947 112.229 171.022 111.776 171.022 111.247C171.022 110.68 170.947 110.227 170.76 109.887ZM170.76 109.887C170.61 109.584 170.46 109.471 170.347 109.395C170.234 109.32 170.084 109.244 169.784 109.244C169.409 109.244 169.296 109.32 169.221 109.358C169.109 109.433 168.959 109.547 168.771 109.924C168.583 110.264 168.508 110.68 168.508 111.247C168.508 111.814 168.583 112.229 168.771 112.569C168.959 112.909 169.109 113.06 169.221 113.136C169.259 113.174 169.409 113.249 169.784 113.249C170.084 113.249 170.197 113.174 170.309 113.098C170.422 113.023 170.572 112.909 170.76 112.569C170.947 112.229 171.022 111.776 171.022 111.247C171.022 110.68 170.947 110.227 170.76 109.887ZM170.76 109.887C170.61 109.584 170.46 109.471 170.347 109.395C170.234 109.32 170.084 109.244 169.784 109.244C169.409 109.244 169.296 109.32 169.221 109.358C169.109 109.433 168.959 109.547 168.771 109.924C168.583 110.264 168.508 110.68 168.508 111.247C168.508 111.814 168.583 112.229 168.771 112.569C168.959 112.909 169.109 113.06 169.221 113.136C169.259 113.174 169.409 113.249 169.784 113.249C170.084 113.249 170.197 113.174 170.309 113.098C170.422 113.023 170.572 112.909 170.76 112.569C170.947 112.229 171.022 111.776 171.022 111.247C171.022 110.68 170.947 110.227 170.76 109.887ZM170.76 109.887C170.61 109.584 170.46 109.471 170.347 109.395C170.234 109.32 170.084 109.244 169.784 109.244C169.409 109.244 169.296 109.32 169.221 109.358C169.109 109.433 168.959 109.547 168.771 109.924C168.583 110.264 168.508 110.68 168.508 111.247C168.508 111.814 168.583 112.229 168.771 112.569C168.959 112.909 169.109 113.06 169.221 113.136C169.259 113.174 169.409 113.249 169.784 113.249C170.084 113.249 170.197 113.174 170.309 113.098C170.422 113.023 170.572 112.909 170.76 112.569C170.947 112.229 171.022 111.776 171.022 111.247C171.022 110.68 170.947 110.227 170.76 109.887ZM170.76 109.887C170.61 109.584 170.46 109.471 170.347 109.395C170.234 109.32 170.084 109.244 169.784 109.244C169.409 109.244 169.296 109.32 169.221 109.358C169.109 109.433 168.959 109.547 168.771 109.924C168.583 110.264 168.508 110.68 168.508 111.247C168.508 111.814 168.583 112.229 168.771 112.569C168.959 112.909 169.109 113.06 169.221 113.136C169.259 113.174 169.409 113.249 169.784 113.249C170.084 113.249 170.197 113.174 170.309 113.098C170.422 113.023 170.572 112.909 170.76 112.569C170.947 112.229 171.022 111.776 171.022 111.247C171.022 110.68 170.947 110.227 170.76 109.887ZM209.747 66.6247C205.506 48.1108 191.961 34.5844 175.9 34.5844C159.578 34.5844 145.844 48.5642 141.867 67.5315C141.116 71.1587 140.703 74.9748 140.703 78.9043C140.703 82.8338 141.116 86.6499 141.867 90.2771C143.743 99.1562 147.72 106.94 153.124 112.683C153.086 112.229 153.049 111.738 153.049 111.285C153.049 109.131 153.424 107.091 154.137 105.164C154.887 103.199 156.013 101.423 157.476 99.9118C158.94 98.3627 160.741 97.1537 162.842 96.2846C164.906 95.4156 167.27 95 169.784 95C172.336 95 174.662 95.4534 176.726 96.3224C178.79 97.1914 180.591 98.4005 182.054 99.9118V99.4584C182.054 97.2292 183.855 95.3778 186.107 95.3778H192.636C193.612 95.3778 194.512 95.7179 195.188 96.2846C195.75 96.0579 196.313 95.869 196.876 95.6801C198.415 95.2267 200.103 95 201.867 95C204.118 95 206.069 95.4534 207.608 96.3602C207.795 96.4736 207.983 96.5869 208.171 96.7003C208.208 96.6247 208.246 96.5491 208.246 96.4358V91.4861C208.246 90.2771 208.809 89.1436 209.747 88.4257C209.934 88.2746 210.159 88.1234 210.385 88.0101C210.872 85.1008 211.135 82.0781 211.135 78.9421C211.097 74.6348 210.647 70.5164 209.747 66.6247ZM175.9 89.6725C173.612 89.6725 171.773 84.8363 171.773 78.8665C171.773 72.8967 173.612 68.0605 175.9 68.0605C178.189 68.0605 180.028 72.8967 180.028 78.8665C180.028 84.8363 178.189 89.6725 175.9 89.6725ZM170.76 109.887C170.61 109.584 170.46 109.471 170.347 109.395C170.234 109.32 170.084 109.244 169.784 109.244C169.409 109.244 169.296 109.32 169.221 109.358C169.109 109.433 168.959 109.547 168.771 109.924C168.583 110.264 168.508 110.68 168.508 111.247C168.508 111.814 168.583 112.229 168.771 112.569C168.959 112.909 169.109 113.06 169.221 113.136C169.259 113.174 169.409 113.249 169.784 113.249C170.084 113.249 170.197 113.174 170.309 113.098C170.422 113.023 170.572 112.909 170.76 112.569C170.947 112.229 171.022 111.776 171.022 111.247C171.022 110.68 170.947 110.227 170.76 109.887ZM170.76 109.887C170.61 109.584 170.46 109.471 170.347 109.395C170.234 109.32 170.084 109.244 169.784 109.244C169.409 109.244 169.296 109.32 169.221 109.358C169.109 109.433 168.959 109.547 168.771 109.924C168.583 110.264 168.508 110.68 168.508 111.247C168.508 111.814 168.583 112.229 168.771 112.569C168.959 112.909 169.109 113.06 169.221 113.136C169.259 113.174 169.409 113.249 169.784 113.249C170.084 113.249 170.197 113.174 170.309 113.098C170.422 113.023 170.572 112.909 170.76 112.569C170.947 112.229 171.022 111.776 171.022 111.247C171.022 110.68 170.947 110.227 170.76 109.887Z" fill="white"/>
<path d="M233.687 36.8514C237.831 36.8514 241.191 31.6074 241.191 25.1385C241.191 18.6697 237.831 13.4257 233.687 13.4257C229.542 13.4257 226.182 18.6697 226.182 25.1385C226.182 31.6074 229.542 36.8514 233.687 36.8514Z" fill="white"/>
<path d="M413.011 90.5038C409.522 94.5844 403.743 97.267 397.176 97.267C386.52 97.267 377.889 90.2015 377.889 81.4735H414.137C414.137 81.3224 414.174 81.1713 414.174 81.0201C414.625 74.3325 413.987 68.0604 412.486 62.3929C410.985 56.7632 408.659 51.738 405.657 47.5819C400.028 39.7607 392.073 34.8489 383.143 34.2443H383.105C382.505 34.2065 381.904 34.1688 381.304 34.1688C375.338 34.1688 369.784 36.0579 364.981 39.3829C355.45 45.995 348.734 58.3123 347.27 73.0101C347.083 75.0504 346.97 77.1284 346.97 79.2443C346.97 105.315 361.979 124.887 381.379 124.887C381.904 124.887 382.467 124.887 382.992 124.849C383.068 124.849 383.105 124.849 383.18 124.849C383.78 124.887 384.418 124.924 385.019 124.924C385.544 124.924 386.107 124.924 386.632 124.887C400.629 124.131 410.46 113.363 415.075 97.5315V87.5567C414.475 88.6146 413.799 89.597 413.011 90.5038ZM383.218 56.6876C386.144 56.6876 388.546 61.1083 388.546 66.5491C388.546 66.8514 388.546 67.1536 388.508 67.4181H377.889C377.889 67.1536 377.852 66.8514 377.852 66.5491C377.889 61.1083 380.291 56.6876 383.218 56.6876Z" fill="white"/>
<path d="M371.323 54.534C371.323 65.4534 363.293 74.2569 353.387 74.2569C347.608 74.2569 342.467 71.272 339.203 66.6247V122.997H307.758V35.5668H339.203V42.4433C342.467 37.796 347.608 34.8111 353.387 34.8111C363.293 34.7733 371.323 43.6146 371.323 54.534Z" fill="white"/>
<path d="M241.191 35.5668V91.4106C241.191 89.1814 239.24 87.33 236.839 87.33H228.996C226.595 87.33 224.644 89.1436 224.644 91.4106C224.644 89.1814 222.692 87.33 220.328 87.33H212.598C211.81 87.33 211.023 87.5189 210.385 87.8967C210.159 88.0101 209.972 88.1612 209.747 88.3123V35.5668C214.512 38.3627 219.841 39.9118 225.469 39.9118C231.098 39.9496 236.426 38.3627 241.191 35.5668Z" fill="white"/>
<path d="M184.418 32.5819C181.679 31.8262 178.865 31.4106 175.901 31.4106C172.974 31.4106 170.122 31.8262 167.42 32.5819L175.901 19.0932L184.418 32.5819Z" fill="white"/>
<path d="M195.488 22.9093C195.45 23.1738 195.375 23.5516 195.225 24.005V24.0428C194.587 26.0076 192.711 29.3325 187.158 32.6196C187.27 32.4307 189.259 28.8791 188.734 27.4055C186.445 26.801 184.794 24.6851 184.794 22.1914C184.794 19.2065 187.195 16.7884 190.159 16.7884C193.124 16.7884 195.525 19.2065 195.525 22.1914C195.525 22.1914 195.563 22.4559 195.488 22.9093Z" fill="white"/>
<path d="M388.546 22.9093C388.508 23.1738 388.433 23.5516 388.283 24.005V24.0428C387.645 26.0076 385.769 29.3325 380.216 32.6196C380.328 32.4307 382.317 28.8791 381.792 27.4055C379.503 26.801 377.852 24.6851 377.852 22.1914C377.852 19.2065 380.253 16.7884 383.218 16.7884C386.182 16.7884 388.584 19.2065 388.584 22.1914C388.584 22.1914 388.621 22.4559 388.546 22.9093Z" fill="white"/>
<path opacity="0.53" d="M195.488 23.5516C195.45 23.9295 195.338 24.3073 195.225 24.6474C195.375 24.194 195.45 23.8161 195.488 23.5516Z" fill="white"/>
<path d="M236.689 91.4484H229.447V97.7204H236.689V91.4484Z" fill="white"/>
<path d="M182.092 107.771C181.979 107.355 181.867 106.977 181.679 106.599C181.116 105.126 180.291 103.841 179.203 102.708C178.114 101.574 176.801 100.668 175.225 100.025C173.649 99.3829 171.848 99.0428 169.822 99.0428C167.796 99.0428 165.994 99.3829 164.418 100.025C162.842 100.705 161.492 101.574 160.403 102.708C159.315 103.841 158.49 105.126 157.927 106.599C157.364 108.073 157.101 109.622 157.101 111.285C157.101 112.909 157.364 114.458 157.927 115.894C158.152 116.499 158.415 117.065 158.752 117.594C159.203 118.388 159.765 119.106 160.403 119.786C161.492 120.919 162.805 121.826 164.418 122.469C165.994 123.111 167.796 123.451 169.822 123.451C171.098 123.451 172.298 123.3 173.386 123.073C174.024 122.922 174.625 122.733 175.225 122.469C176.801 121.788 178.114 120.919 179.203 119.786C180.291 118.652 181.116 117.33 181.679 115.894C181.829 115.516 181.979 115.101 182.092 114.723C182.392 113.627 182.58 112.456 182.58 111.285C182.542 110.038 182.392 108.866 182.092 107.771ZM174.4 114.383C173.949 115.29 173.311 116.008 172.523 116.537C171.735 117.065 170.835 117.292 169.822 117.292C168.809 117.292 167.908 117.028 167.12 116.537C166.332 116.045 165.694 115.327 165.244 114.421C164.756 113.514 164.531 112.456 164.531 111.247C164.531 110.038 164.756 108.98 165.244 108.073C165.732 107.166 166.332 106.448 167.12 105.957C167.908 105.466 168.809 105.202 169.822 105.202C170.835 105.202 171.698 105.466 172.523 105.957C173.311 106.448 173.949 107.166 174.4 108.073C174.85 108.98 175.075 110.038 175.075 111.247C175.075 112.418 174.85 113.476 174.4 114.383Z" fill="white"/>
<path d="M209.034 107.922V122.997H201.792V109.811C201.792 109.509 201.792 109.207 201.754 108.942C201.679 107.846 201.379 106.977 200.929 106.411C200.328 105.73 199.578 105.353 198.602 105.353C197.927 105.353 197.251 105.542 196.576 105.882C195.863 106.222 195.263 106.713 194.7 107.317C194.137 107.922 193.724 108.64 193.424 109.433V122.96H186.107V99.3073H192.636V103.35C193.236 102.406 193.987 101.612 194.887 100.97C195.788 100.29 196.839 99.7985 198.002 99.4584C199.165 99.1184 200.478 98.9295 201.829 98.9295C203.368 98.9295 204.606 99.194 205.582 99.7607C205.957 99.9874 206.295 100.214 206.595 100.479C207.083 100.894 207.458 101.385 207.758 101.914C207.946 102.254 208.096 102.594 208.246 102.972C208.471 103.577 208.659 104.181 208.771 104.824C208.921 105.919 209.034 106.94 209.034 107.922Z" fill="white"/>
<path d="M225.919 122.166C225.507 122.355 225.094 122.506 224.644 122.657C224.231 122.809 223.818 122.922 223.405 122.997C223.218 123.035 222.992 123.073 222.805 123.149C221.642 123.375 220.516 123.489 219.503 123.489C218.377 123.489 217.401 123.338 216.538 122.997C215.825 122.733 215.225 122.393 214.7 121.902C213.762 121.033 213.199 119.824 213.049 118.312C213.011 118.01 213.011 117.708 213.011 117.406V91.4484H220.253V114.987C220.253 115.932 220.441 116.612 220.816 117.028C221.191 117.443 221.679 117.632 222.355 117.632C222.805 117.632 223.255 117.557 223.743 117.443C224.081 117.368 224.381 117.254 224.644 117.141C224.756 117.103 224.869 117.028 224.981 116.99L225.919 122.166Z" fill="white"/>
<path d="M236.689 100.29H229.447V122.997H236.689V100.29Z" fill="white"/>
<path d="M262.917 107.922V122.997H255.675V109.811C255.675 108.262 255.375 107.128 254.775 106.448C254.174 105.768 253.424 105.39 252.448 105.39C251.773 105.39 251.098 105.579 250.422 105.919C249.709 106.259 249.109 106.751 248.546 107.355C247.983 107.96 247.57 108.678 247.233 109.471V122.997H239.991V99.3451H246.52V103.388C247.12 102.443 247.871 101.65 248.771 101.008C249.672 100.327 250.722 99.8363 251.886 99.4962C253.049 99.1562 254.362 98.9673 255.713 98.9673C257.251 98.9673 258.49 99.2317 259.428 99.7985C260.366 100.365 261.116 101.083 261.604 101.99C262.092 102.897 262.43 103.841 262.58 104.861C262.842 105.919 262.917 106.94 262.917 107.922Z" fill="white"/>
<path d="M291.435 105.164C290.422 103.312 288.996 101.839 287.12 100.705C285.244 99.5718 282.955 99.005 280.253 99.005C277.552 99.005 275.263 99.5718 273.386 100.743C271.473 101.877 270.047 103.388 269.034 105.277C268.021 107.128 267.533 109.207 267.533 111.474C267.533 112.003 267.57 112.531 267.645 113.06C267.758 114.081 268.021 115.063 268.396 116.045C268.959 117.481 269.822 118.804 270.91 119.899C271.998 120.995 273.349 121.902 274.925 122.544C275.638 122.846 276.426 123.073 277.214 123.224C278.189 123.413 279.203 123.489 280.291 123.489C282.092 123.489 283.743 123.224 285.244 122.657C286.745 122.091 288.021 121.335 289.146 120.39C290.235 119.446 291.098 118.312 291.698 117.103L285.544 115.365C285.169 116.234 284.531 116.952 283.593 117.443C282.655 117.972 281.604 118.199 280.516 118.199C279.653 118.199 278.827 118.01 278.039 117.632C277.251 117.254 276.614 116.725 276.126 116.008C275.638 115.29 275.338 114.421 275.225 113.4H292.786C292.824 113.098 292.861 112.758 292.899 112.343C292.936 111.927 292.974 111.511 292.974 111.096C292.899 108.98 292.411 106.977 291.435 105.164ZM275 108.98C275.113 108.035 275.413 107.204 275.863 106.486C276.313 105.768 276.914 105.239 277.664 104.824C278.415 104.446 279.24 104.219 280.178 104.219C281.079 104.219 281.904 104.408 282.655 104.824C283.405 105.202 284.006 105.768 284.456 106.486C284.906 107.204 285.206 108.035 285.319 108.98H275Z" fill="white"/>
</g>
<defs>
<clipPath id="clip0_576_27937">
<rect width="400" height="120" fill="white" transform="translate(15 5)"/>
</clipPath>
</defs>
</svg>
